<svg fill="none" height="18" viewBox="0 0 283 64" width="80" xmlns="http://www.w3.org/2000/svg"><path d="M141.04 16c-11.04 0-19 7.2-19 18s8.96 18 20 18c6.67 0 12.55-2.64 16.19-7.09l-7.65-4.42c-2.02 2.21-5.09 3.76-8.54 3.76-4.71 0-8.48-3.03-9.45-7.5h29.3c.14-1.01.21-2.06.21-3.13 0-10.26-7.85-17.62-21.06-17.62zm-8.98 14.5c.78-3.69 3.72-6.5 8.16-6.5 4.54 0 7.37 2.81 8.04 6.5h-16.2zM178.61 31.74l14.16-15.02h-12.78l-8.51 9.58-8.52-9.58h-12.79l14.17 15.02-14.77 15.63h12.78l9.13-10.22 9.13 10.22h12.79l-14.77-15.63zm-91.86-15.02h-27.5v35.4h11.75V36.32h15.75c10.45 0 17.75-6.83 17.75-14.8 0-7.97-7.3-14.8-17.75-14.8zm0 10.15h-15.75v-9.75h15.75c4.75 0 7.75 2.5 7.75 4.88 0 2.37-3 4.87-7.75 4.87zM242.06 16c-11.75 0-19.5 7.75-19.5 17.75s7.75 17.75 19.5 17.75 19.5-7.75 19.5-17.75S253.81 16 242.06 16zm0 25.35c-5.45 0-8.25-3.3-8.25-7.6s2.8-7.6 8.25-7.6 8.25 3.3 8.25 7.6-2.8 7.6-8.25 7.6zM283 51.4V16.72h-10.9V22c-2.2-3.8-6.2-6-11.8-6-10.4 0-17.4 7.4-17.4 17.7 0 10.3 7 17.7 17.4 17.7 5.6 0 9.6-2.2 11.8-6v6H283zm-19.2-10c-5.4 0-8.2-3.3-8.2-7.6 0-4.3 2.8-7.6 8.2-7.6 5.4 0 8.2 3.3 8.2 7.6 0 4.3-2.8 7.6-8.2 7.6zM27.07 16.49 0 63.6h11.81l4.9-8.7h23.71l4.9 8.7h11.81L30.08 16.49h-3.01zm-4.7 28.51 7.02-12.44 7.03 12.44H22.37z" fill="#000"/></svg>